<?xml version="1.0" encoding="utf-8"?>
<!-- Generator: Adobe Illustrator 18.0.0, SVG Export Plug-In . SVG Version: 6.00 Build 0)  -->
<!DOCTYPE svg PUBLIC "-//W3C//DTD SVG 1.1//EN" "http://www.w3.org/Graphics/SVG/1.1/DTD/svg11.dtd">
<svg version="1.1" id="Layer_1" xmlns="http://www.w3.org/2000/svg" xmlns:xlink="http://www.w3.org/1999/xlink" x="0px" y="0px" width="200px" height="77.4px"
	 viewBox="0 0 352.1 91" enable-background="new 0 0 352.1 91" preserveAspectRatio="xMidYMin meet" xml:space="preserve">
<g>
	<path fill="#223267" d="M118,6.6c2-0.4,5.5-0.7,9-0.7c4.6,0,7.4,0.6,9.7,2.2c2.1,1.3,3.5,3.5,3.5,6.3c0,3.1-2,6-5.6,7.3v0.1
		c3.6,0.9,6.8,3.7,6.8,8.4c0,3-1.3,5.4-3.3,7c-2.4,2.1-6.4,3.2-12.5,3.2c-3.4,0-6-0.3-7.6-0.5V6.6z M124.1,19.9h3.2
		c4.3,0,6.7-2,6.7-4.9c0-3.2-2.4-4.6-6.3-4.6c-1.8,0-2.9,0.1-3.5,0.3V19.9z M124.1,35.5c0.8,0.1,1.9,0.2,3.3,0.2
		c4,0,7.5-1.5,7.5-5.7c0-3.9-3.4-5.5-7.7-5.5h-3.1V35.5z"/>
	<path fill="#223267" d="M160.4,39.9l-0.4-2.7h-0.1c-1.5,1.9-4.1,3.3-7.2,3.3c-4.9,0-7.7-3.6-7.7-7.3c0-6.2,5.5-9.3,14.5-9.2v-0.4
		c0-1.6-0.7-4.3-5-4.3c-2.4,0-4.9,0.8-6.6,1.8l-1.2-4c1.8-1.1,5-2.2,8.8-2.2c7.8,0,10.1,5,10.1,10.3v8.8c0,2.2,0.1,4.4,0.4,5.9
		H160.4z M159.6,28c-4.4-0.1-8.5,0.9-8.5,4.6c0,2.4,1.6,3.5,3.5,3.5c2.5,0,4.3-1.6,4.8-3.4c0.2-0.5,0.2-1,0.2-1.4V28z"/>
	<path fill="#223267" d="M172.1,23.4c0-3.3-0.1-5.7-0.2-7.9h5.4l0.2,4.7h0.2c1.2-3.5,4.1-5.2,6.7-5.2c0.6,0,1,0,1.5,0.2v5.8
		c-0.5-0.1-1.1-0.2-1.8-0.2c-3,0-5,1.9-5.5,4.7c-0.1,0.6-0.2,1.2-0.2,1.9v12.6h-6.2V23.4z"/>
	<path fill="#223267" d="M190,23.4c0-3.3-0.1-5.7-0.2-7.9h5.4l0.2,4.7h0.2c1.2-3.5,4.1-5.2,6.7-5.2c0.6,0,1,0,1.5,0.2v5.8
		c-0.5-0.1-1.1-0.2-1.8-0.2c-3,0-5,1.9-5.5,4.7c-0.1,0.6-0.2,1.2-0.2,1.9v12.6H190V23.4z"/>
</g>
<g>
	<path fill="#0081C6" d="M118,56.7h18.2v3.7h-13.8v11.2h12.8v3.6h-12.8v15.3H118V56.7z"/>
	<path fill="#0081C6" d="M162.6,78.1c0,9-6.2,12.9-12.1,12.9c-6.6,0-11.6-4.8-11.6-12.5c0-8.1,5.3-12.9,12-12.9
		C157.9,65.6,162.6,70.7,162.6,78.1z M143.3,78.4c0,5.3,3.1,9.3,7.4,9.3c4.2,0,7.4-4,7.4-9.4c0-4.1-2.1-9.3-7.3-9.3
		C145.6,69,143.3,73.8,143.3,78.4z"/>
	<path fill="#0081C6" d="M188.4,83.8c0,2.5,0.1,4.7,0.2,6.6h-3.9l-0.3-4h-0.1c-1.2,2-3.7,4.5-8,4.5c-3.8,0-8.4-2.1-8.4-10.6V66.2
		h4.4v13.4c0,4.6,1.4,7.7,5.4,7.7c3,0,5-2.1,5.8-4c0.3-0.7,0.4-1.5,0.4-2.3V66.2h4.4V83.8z"/>
	<path fill="#0081C6" d="M195.7,72.8c0-2.5-0.1-4.6-0.2-6.6h3.9l0.3,4h0.1c1.2-2.3,4-4.6,8-4.6c3.4,0,8.6,2,8.6,10.3v14.5H212v-14
		c0-3.9-1.5-7.2-5.6-7.2c-2.9,0-5.2,2.1-5.9,4.5c-0.2,0.6-0.3,1.3-0.3,2.1v14.6h-4.4V72.8z"/>
	<path fill="#0081C6" d="M244.5,54.9v29.3c0,2.2,0,4.6,0.2,6.3h-4l-0.2-4.2h-0.1c-1.4,2.7-4.3,4.8-8.3,4.8c-5.9,0-10.4-5-10.4-12.3
		c-0.1-8.1,5-13,10.9-13c3.7,0,6.2,1.8,7.3,3.7h0.1V54.9H244.5z M240,76.1c0-0.6,0-1.3-0.2-1.9c-0.7-2.8-3.1-5.1-6.4-5.1
		c-4.6,0-7.3,4-7.3,9.4c0,4.9,2.4,9,7.2,9c3,0,5.7-2,6.5-5.3c0.2-0.6,0.2-1.2,0.2-1.9V76.1z"/>
	<path fill="#0081C6" d="M265.2,90.4l-0.4-3.1h-0.2c-1.4,1.9-4,3.6-7.4,3.6c-4.9,0-7.4-3.5-7.4-7c0-5.9,5.2-9.1,14.6-9v-0.5
		c0-2-0.6-5.6-5.5-5.6c-2.3,0-4.6,0.7-6.3,1.8l-1-2.9c2-1.3,4.9-2.2,8-2.2c7.4,0,9.2,5.1,9.2,9.9v9.1c0,2.1,0.1,4.2,0.4,5.8H265.2z
		 M264.5,78.1c-4.8-0.1-10.3,0.8-10.3,5.5c0,2.9,1.9,4.2,4.2,4.2c3.2,0,5.2-2,5.9-4.1c0.2-0.5,0.2-1,0.2-1.4V78.1z"/>
	<path fill="#0081C6" d="M281,59.2v7h6.3v3.4H281v13.1c0,3,0.9,4.7,3.3,4.7c1.2,0,2-0.2,2.6-0.3l0.2,3.3c-0.9,0.4-2.2,0.6-3.9,0.6
		c-2.1,0-3.7-0.7-4.8-1.9c-1.3-1.3-1.7-3.5-1.7-6.3V69.6h-3.8v-3.4h3.8v-5.8L281,59.2z"/>
	<path fill="#0081C6" d="M297.2,59.4c0,1.5-1.1,2.7-2.8,2.7c-1.6,0-2.7-1.2-2.7-2.7c0-1.6,1.2-2.8,2.8-2.8
		C296.1,56.6,297.2,57.8,297.2,59.4z M292.3,90.4V66.2h4.4v24.2H292.3z"/>
	<path fill="#0081C6" d="M325.9,78.1c0,9-6.2,12.9-12.1,12.9c-6.6,0-11.6-4.8-11.6-12.5c0-8.1,5.3-12.9,12-12.9
		C321.2,65.6,325.9,70.7,325.9,78.1z M306.7,78.4c0,5.3,3.1,9.3,7.4,9.3c4.2,0,7.4-4,7.4-9.4c0-4.1-2.1-9.3-7.3-9.3
		C309,69,306.7,73.8,306.7,78.4z"/>
	<path fill="#0081C6" d="M331.5,72.8c0-2.5-0.1-4.6-0.2-6.6h3.9l0.3,4h0.1c1.2-2.3,4-4.6,8-4.6c3.4,0,8.6,2,8.6,10.3v14.5h-4.4v-14
		c0-3.9-1.5-7.2-5.6-7.2c-2.9,0-5.2,2.1-5.9,4.5c-0.2,0.6-0.3,1.3-0.3,2.1v14.6h-4.4V72.8z"/>
</g>
<path fill="#223267" d="M118.7,24.4"/>
<path fill="#0081C6" d="M255.1,71.5"/>
<line fill="#0081C6" x1="320.7" y1="79.5" x2="323.3" y2="76.9"/>
<g>
	<defs>
		<path id="SVGID_1_" d="M65.1,77.2l25.9,8.1v-10l-18-5.6l8.4-8l9.5,3V0.5c0-0.3-0.2-0.5-0.5-0.5h-90C0.2,0,0,0.2,0,0.5v89.6
			c0,0.3,0.2,0.5,0.5,0.5h51.1L65.1,77.2z M40.9,49.2l14.3,4.4l0,0l4.2,1.3c3.6,1.1,4.6,3.8,2.2,6c-2.3,2.2-7.1,3.1-10.7,2l-4.2-1.3
			l-4.9-1.5l-9.4-2.9L40.9,49.2z M31.5,84.5l-5.4-1.7l-4.9-1.5l-10.7-3.3l3.2-3l3.2-3l7.7-7.3L35.3,68l4.9,1.5l5.4,1.7
			c6,1.8,7.6,6.3,3.8,10C45.5,84.9,37.5,86.4,31.5,84.5z"/>
	</defs>
	<use xlink:href="#SVGID_1_"  overflow="visible" fill="#0081C6"/>
	<clipPath id="SVGID_2_">
		<use xlink:href="#SVGID_1_"  overflow="visible"/>
	</clipPath>
</g>
</svg>
